<svg xmlns="http://www.w3.org/2000/svg" xmlns:xlink="http://www.w3.org/1999/xlink" width="500" zoomAndPan="magnify" viewBox="0 0 375 374.999991" height="500" preserveAspectRatio="xMidYMid meet" version="1.0"><defs><g/><clipPath id="9bb338f3df"><path d="M 131.808594 84.734375 L 243.558594 84.734375 L 243.558594 196.484375 L 131.808594 196.484375 Z M 131.808594 84.734375 " clip-rule="nonzero"/></clipPath><clipPath id="a97f262c16"><path d="M 176 107.160156 L 200 107.160156 L 200 158 L 176 158 Z M 176 107.160156 " clip-rule="nonzero"/></clipPath><clipPath id="e233ecc1da"><path d="M 151.867188 161 L 225.367188 161 L 225.367188 171.660156 L 151.867188 171.660156 Z M 151.867188 161 " clip-rule="nonzero"/></clipPath></defs><g clip-path="url(#9bb338f3df)"><path fill="#38b6ff" d="M 240.101562 155.507812 C 238.683594 160.328125 236.523438 164.90625 233.839844 169.121094 C 231.621094 172.550781 229.101562 175.773438 226.269531 178.703125 C 225.902344 179.105469 225.496094 179.464844 225.105469 179.84375 C 224.710938 180.214844 224.328125 180.597656 223.921875 180.957031 L 222.082031 182.5625 L 221.445312 183.066406 L 220.175781 184.082031 C 219.742188 184.410156 219.300781 184.722656 218.863281 185.046875 C 218 185.707031 217.082031 186.285156 216.183594 186.894531 C 216.054688 186.984375 215.921875 187.074219 215.777344 187.167969 C 215.632812 187.257812 215.480469 187.347656 215.320312 187.445312 C 215.003906 187.632812 214.664062 187.839844 214.300781 188.054688 C 213.582031 188.503906 212.734375 188.929688 211.816406 189.417969 C 211.585938 189.535156 211.355469 189.664062 211.113281 189.78125 C 210.867188 189.894531 210.617188 190.011719 210.363281 190.128906 C 209.851562 190.367188 209.324219 190.609375 208.78125 190.859375 C 207.664062 191.296875 206.5 191.820312 205.230469 192.226562 C 200.21875 194.046875 193.960938 195.167969 187.683594 195.195312 C 181.40625 195.167969 175.148438 194.046875 170.136719 192.226562 C 168.867188 191.820312 167.703125 191.296875 166.585938 190.859375 C 166.042969 190.609375 165.515625 190.367188 165.007812 190.128906 C 164.75 190.011719 164.5 189.894531 164.257812 189.78125 C 164.011719 189.667969 163.78125 189.535156 163.550781 189.417969 C 162.636719 188.929688 161.785156 188.503906 161.070312 188.054688 C 160.707031 187.839844 160.363281 187.632812 160.046875 187.445312 C 159.890625 187.347656 159.738281 187.257812 159.589844 187.167969 C 159.449219 187.074219 159.3125 186.984375 159.183594 186.898438 C 155.773438 184.660156 152.570312 182.121094 149.65625 179.269531 C 146.585938 176.203125 143.898438 172.765625 141.53125 169.121094 C 138.847656 164.90625 136.683594 160.328125 135.265625 155.507812 C 133.789062 150.699219 133.109375 145.652344 133.066406 140.609375 C 133.109375 135.5625 133.789062 130.515625 135.265625 125.710938 C 136.683594 120.886719 138.847656 116.308594 141.53125 112.09375 C 143.746094 108.664062 146.265625 105.441406 149.097656 102.511719 C 149.464844 102.109375 149.871094 101.75 150.261719 101.375 C 150.65625 101.003906 151.042969 100.617188 151.445312 100.257812 L 153.285156 98.652344 L 153.921875 98.148438 L 155.195312 97.132812 C 155.625 96.804688 156.070312 96.492188 156.503906 96.171875 C 157.367188 95.511719 158.285156 94.929688 159.183594 94.320312 C 159.3125 94.230469 159.449219 94.140625 159.589844 94.046875 C 159.738281 93.957031 159.886719 93.867188 160.046875 93.769531 C 160.363281 93.582031 160.703125 93.378906 161.066406 93.160156 C 161.785156 92.710938 162.632812 92.285156 163.550781 91.796875 C 163.78125 91.679688 164.011719 91.550781 164.257812 91.433594 C 164.5 91.320312 164.75 91.203125 165.003906 91.085938 C 165.515625 90.851562 166.042969 90.605469 166.585938 90.355469 C 167.703125 89.917969 168.867188 89.394531 170.136719 88.988281 C 175.148438 87.167969 181.40625 86.046875 187.683594 86.019531 C 193.960938 86.046875 200.21875 87.167969 205.230469 88.988281 C 206.5 89.394531 207.664062 89.917969 208.78125 90.355469 C 209.324219 90.605469 209.851562 90.851562 210.363281 91.085938 C 210.617188 91.203125 210.867188 91.320312 211.113281 91.433594 C 211.355469 91.550781 211.585938 91.679688 211.816406 91.796875 C 212.734375 92.285156 213.582031 92.710938 214.300781 93.160156 C 214.664062 93.378906 215.003906 93.582031 215.320312 93.769531 C 215.480469 93.867188 215.632812 93.957031 215.777344 94.046875 C 215.917969 94.140625 216.054688 94.230469 216.183594 94.320312 C 219.59375 96.554688 222.800781 99.09375 225.710938 101.945312 C 228.785156 105.011719 231.46875 108.449219 233.835938 112.09375 C 236.523438 116.308594 238.683594 120.886719 240.101562 125.710938 C 241.578125 130.515625 242.257812 135.5625 242.304688 140.609375 C 242.257812 145.652344 241.578125 150.699219 240.101562 155.507812 Z M 243.558594 140.570312 L 243.558594 140.566406 C 243.511719 135.414062 242.820312 130.257812 241.316406 125.34375 C 239.875 120.414062 237.664062 115.734375 234.90625 111.433594 L 233.582031 109.441406 C 233.582031 109.441406 233.199219 108.90625 232.625 108.105469 C 232.070312 107.285156 231.226562 106.273438 230.417969 105.234375 C 229.546875 104.25 228.710938 103.230469 228.007812 102.535156 C 227.324219 101.824219 226.871094 101.347656 226.871094 101.347656 C 226.871094 101.347656 226.757812 101.230469 226.546875 101.03125 C 226.339844 100.832031 226.046875 100.546875 225.691406 100.203125 C 225 99.496094 223.996094 98.648438 223.007812 97.777344 C 222.503906 97.355469 221.984375 96.953125 221.503906 96.566406 C 221.261719 96.375 221.027344 96.191406 220.804688 96.015625 C 220.578125 95.847656 220.359375 95.691406 220.160156 95.546875 C 219.359375 94.96875 218.828125 94.585938 218.828125 94.585938 C 218.828125 94.585938 218.710938 94.492188 218.523438 94.371094 C 218.335938 94.246094 218.089844 94.078125 217.839844 93.914062 C 217.34375 93.582031 216.847656 93.25 216.847656 93.25 C 216.714844 93.160156 216.578125 93.066406 216.429688 92.96875 C 216.28125 92.875 216.125 92.78125 215.964844 92.683594 C 215.640625 92.488281 215.292969 92.28125 214.921875 92.058594 C 214.1875 91.597656 213.320312 91.160156 212.382812 90.660156 C 212.148438 90.539062 211.910156 90.40625 211.660156 90.285156 C 211.410156 90.167969 211.15625 90.050781 210.894531 89.929688 C 210.375 89.6875 209.832031 89.4375 209.277344 89.179688 C 208.132812 88.730469 206.941406 88.195312 205.644531 87.777344 C 200.511719 85.914062 194.109375 84.757812 187.683594 84.734375 C 181.261719 84.757812 174.855469 85.914062 169.722656 87.777344 C 168.425781 88.195312 167.234375 88.730469 166.089844 89.179688 C 165.535156 89.4375 164.996094 89.6875 164.472656 89.929688 C 164.214844 90.050781 163.957031 90.167969 163.707031 90.285156 C 163.457031 90.40625 163.222656 90.539062 162.984375 90.660156 C 162.046875 91.160156 161.179688 91.597656 160.445312 92.058594 C 160.074219 92.28125 159.726562 92.492188 159.402344 92.683594 C 159.242188 92.78125 159.085938 92.878906 158.9375 92.96875 C 158.792969 93.066406 158.652344 93.160156 158.519531 93.25 C 158.519531 93.25 158.023438 93.582031 157.527344 93.914062 C 157.28125 94.078125 157.03125 94.246094 156.84375 94.371094 C 156.65625 94.492188 156.542969 94.585938 156.542969 94.585938 C 156.542969 94.585938 156.007812 94.96875 155.207031 95.546875 C 155.007812 95.691406 154.789062 95.847656 154.5625 96.015625 C 154.339844 96.191406 154.105469 96.375 153.867188 96.566406 C 153.386719 96.953125 152.863281 97.355469 152.359375 97.777344 C 151.375 98.648438 150.367188 99.496094 149.675781 100.203125 C 149.320312 100.546875 149.027344 100.832031 148.820312 101.03125 C 148.613281 101.230469 148.496094 101.347656 148.496094 101.347656 C 148.496094 101.347656 148.042969 101.824219 147.359375 102.535156 C 146.65625 103.230469 145.820312 104.25 144.949219 105.234375 C 144.144531 106.273438 143.296875 107.285156 142.742188 108.105469 C 142.167969 108.90625 141.785156 109.445312 141.785156 109.445312 L 140.460938 111.433594 C 137.703125 115.734375 135.492188 120.414062 134.050781 125.34375 C 132.550781 130.257812 131.855469 135.414062 131.8125 140.566406 L 131.808594 140.570312 L 131.808594 140.644531 L 131.8125 140.648438 C 131.855469 145.800781 132.550781 150.957031 134.050781 155.871094 C 135.492188 160.800781 137.703125 165.480469 140.460938 169.78125 L 141.785156 171.773438 C 141.785156 171.773438 142.167969 172.308594 142.742188 173.109375 C 143.296875 173.929688 144.144531 174.941406 144.949219 175.980469 C 145.820312 176.96875 146.65625 177.984375 147.359375 178.679688 C 148.042969 179.390625 148.496094 179.867188 148.496094 179.867188 C 148.496094 179.867188 148.613281 179.984375 148.820312 180.183594 C 149.027344 180.382812 149.320312 180.667969 149.675781 181.011719 C 150.367188 181.71875 151.375 182.566406 152.359375 183.4375 C 152.863281 183.859375 153.386719 184.261719 153.867188 184.648438 C 154.105469 184.839844 154.339844 185.023438 154.5625 185.203125 C 154.789062 185.367188 155.007812 185.523438 155.207031 185.667969 C 156.007812 186.246094 156.542969 186.628906 156.542969 186.628906 C 156.542969 186.628906 156.65625 186.722656 156.84375 186.84375 C 157.03125 186.96875 157.28125 187.136719 157.527344 187.300781 C 158.023438 187.632812 158.519531 187.96875 158.519531 187.96875 C 158.652344 188.054688 158.792969 188.148438 158.9375 188.246094 C 159.085938 188.339844 159.242188 188.433594 159.402344 188.53125 C 159.726562 188.726562 160.078125 188.933594 160.445312 189.15625 C 161.179688 189.621094 162.046875 190.054688 162.984375 190.554688 C 163.222656 190.675781 163.457031 190.808594 163.707031 190.929688 C 163.957031 191.046875 164.214844 191.167969 164.472656 191.289062 C 164.996094 191.527344 165.535156 191.777344 166.09375 192.039062 C 167.234375 192.484375 168.425781 193.019531 169.726562 193.441406 C 174.855469 195.304688 181.261719 196.457031 187.683594 196.484375 C 194.109375 196.457031 200.511719 195.304688 205.644531 193.4375 C 206.941406 193.019531 208.132812 192.484375 209.277344 192.035156 C 209.832031 191.777344 210.375 191.527344 210.894531 191.285156 C 211.15625 191.164062 211.410156 191.046875 211.660156 190.929688 C 211.910156 190.808594 212.148438 190.675781 212.382812 190.554688 C 213.320312 190.054688 214.1875 189.621094 214.921875 189.15625 C 215.292969 188.933594 215.640625 188.726562 215.964844 188.53125 C 216.125 188.433594 216.28125 188.339844 216.429688 188.246094 C 216.578125 188.148438 216.714844 188.054688 216.847656 187.96875 C 216.847656 187.96875 217.34375 187.632812 217.839844 187.300781 C 218.089844 187.136719 218.335938 186.96875 218.523438 186.84375 C 218.710938 186.722656 218.828125 186.628906 218.828125 186.628906 C 218.828125 186.628906 219.359375 186.246094 220.160156 185.667969 C 220.359375 185.523438 220.578125 185.367188 220.804688 185.203125 C 221.027344 185.023438 221.261719 184.839844 221.503906 184.648438 C 221.984375 184.261719 222.503906 183.859375 223.007812 183.4375 C 223.996094 182.566406 225 181.71875 225.691406 181.011719 C 226.046875 180.667969 226.339844 180.382812 226.546875 180.183594 C 226.757812 179.984375 226.871094 179.867188 226.871094 179.867188 C 226.871094 179.867188 227.324219 179.390625 228.007812 178.679688 C 228.710938 177.984375 229.546875 176.96875 230.417969 175.980469 C 231.226562 174.941406 232.074219 173.929688 232.625 173.109375 C 233.199219 172.308594 233.582031 171.773438 233.582031 171.773438 L 234.90625 169.78125 C 237.664062 165.480469 239.875 160.800781 241.316406 155.871094 C 242.820312 150.957031 243.511719 145.800781 243.558594 140.648438 L 243.558594 140.570312 " fill-opacity="1" fill-rule="nonzero"/></g><g fill="#38b6ff" fill-opacity="1"><g transform="translate(91.997798, 245.120638)"><g><path d="M 1.765625 0 L 1.765625 -0.40625 L 2.84375 -0.40625 C 3.882812 -0.40625 4.613281 -0.625 5.03125 -1.0625 C 5.445312 -1.5 5.65625 -2.335938 5.65625 -3.578125 L 5.65625 -25.15625 C 5.65625 -26.332031 5.445312 -27.140625 5.03125 -27.578125 C 4.613281 -28.023438 3.882812 -28.25 2.84375 -28.25 L 1.765625 -28.25 L 1.765625 -28.65625 L 12.28125 -28.65625 L 12.28125 -28.25 L 11.1875 -28.25 C 10.125 -28.25 9.390625 -28.023438 8.984375 -27.578125 C 8.585938 -27.140625 8.390625 -26.304688 8.390625 -25.078125 L 8.390625 -15.171875 L 22.875 -15.171875 L 22.875 -25.078125 C 22.875 -26.304688 22.671875 -27.140625 22.265625 -27.578125 C 21.867188 -28.023438 21.132812 -28.25 20.0625 -28.25 L 18.984375 -28.25 L 18.984375 -28.65625 L 29.484375 -28.65625 L 29.484375 -28.25 L 28.40625 -28.25 C 27.363281 -28.25 26.632812 -28.023438 26.21875 -27.578125 C 25.800781 -27.140625 25.59375 -26.332031 25.59375 -25.15625 L 25.59375 -3.578125 C 25.59375 -2.335938 25.800781 -1.5 26.21875 -1.0625 C 26.632812 -0.625 27.363281 -0.40625 28.40625 -0.40625 L 29.484375 -0.40625 L 29.484375 0 L 18.984375 0 L 18.984375 -0.40625 L 20.0625 -0.40625 C 21.132812 -0.40625 21.867188 -0.625 22.265625 -1.0625 C 22.671875 -1.5 22.875 -2.335938 22.875 -3.578125 L 22.875 -14.765625 L 8.390625 -14.765625 L 8.390625 -3.578125 C 8.390625 -2.335938 8.585938 -1.5 8.984375 -1.0625 C 9.390625 -0.625 10.125 -0.40625 11.1875 -0.40625 L 12.28125 -0.40625 L 12.28125 0 Z M 1.765625 0 "/></g></g></g><g fill="#38b6ff" fill-opacity="1"><g transform="translate(125.101236, 245.120638)"><g><path d="M 14.359375 0.40625 C 11.660156 0.40625 9.414062 -0.191406 7.625 -1.390625 C 5.832031 -2.597656 4.492188 -4.304688 3.609375 -6.515625 C 2.722656 -8.722656 2.28125 -11.351562 2.28125 -14.40625 C 2.28125 -17.425781 2.726562 -20.03125 3.625 -22.21875 C 4.519531 -24.414062 5.863281 -26.109375 7.65625 -27.296875 C 9.457031 -28.492188 11.707031 -29.09375 14.40625 -29.09375 C 18.445312 -29.09375 21.460938 -27.773438 23.453125 -25.140625 C 25.441406 -22.503906 26.4375 -18.910156 26.4375 -14.359375 C 26.4375 -11.390625 25.992188 -8.800781 25.109375 -6.59375 C 24.234375 -4.394531 22.898438 -2.675781 21.109375 -1.4375 C 19.316406 -0.207031 17.066406 0.40625 14.359375 0.40625 Z M 14.359375 0 C 17.578125 0 19.898438 -1.179688 21.328125 -3.546875 C 22.753906 -5.921875 23.46875 -9.523438 23.46875 -14.359375 C 23.46875 -19.203125 22.765625 -22.800781 21.359375 -25.15625 C 19.960938 -27.507812 17.644531 -28.6875 14.40625 -28.6875 C 11.269531 -28.6875 8.953125 -27.507812 7.453125 -25.15625 C 5.960938 -22.800781 5.21875 -19.203125 5.21875 -14.359375 C 5.21875 -9.523438 5.960938 -5.921875 7.453125 -3.546875 C 8.953125 -1.179688 11.253906 0 14.359375 0 Z M 14.359375 0 "/></g></g></g><g fill="#38b6ff" fill-opacity="1"><g transform="translate(155.757046, 245.120638)"><g><path d="M 14.125 0.40625 C 11.125 0.40625 8.753906 -0.28125 7.015625 -1.65625 C 5.273438 -3.039062 4.40625 -5.363281 4.40625 -8.625 L 4.40625 -25.15625 C 4.40625 -26.332031 4.195312 -27.140625 3.78125 -27.578125 C 3.375 -28.023438 2.648438 -28.25 1.609375 -28.25 L 0.5625 -28.25 L 0.5625 -28.65625 L 11 -28.65625 L 11 -28.25 L 9.953125 -28.25 C 8.878906 -28.25 8.140625 -28.023438 7.734375 -27.578125 C 7.335938 -27.140625 7.140625 -26.304688 7.140625 -25.078125 L 7.140625 -8.421875 C 7.140625 -6.390625 7.445312 -4.769531 8.0625 -3.5625 C 8.675781 -2.363281 9.53125 -1.503906 10.625 -0.984375 C 11.726562 -0.460938 13 -0.203125 14.4375 -0.203125 C 17.09375 -0.203125 19.203125 -0.890625 20.765625 -2.265625 C 22.328125 -3.640625 23.109375 -5.597656 23.109375 -8.140625 L 23.109375 -25.15625 C 23.109375 -26.332031 22.898438 -27.140625 22.484375 -27.578125 C 22.078125 -28.023438 21.335938 -28.25 20.265625 -28.25 L 19.265625 -28.25 L 19.265625 -28.65625 L 27.328125 -28.65625 L 27.328125 -28.25 L 26.328125 -28.25 C 25.253906 -28.25 24.515625 -28.023438 24.109375 -27.578125 C 23.710938 -27.140625 23.515625 -26.304688 23.515625 -25.078125 L 23.515625 -8.0625 C 23.515625 -5.414062 22.679688 -3.34375 21.015625 -1.84375 C 19.359375 -0.34375 17.0625 0.40625 14.125 0.40625 Z M 14.125 0.40625 "/></g></g></g><g fill="#38b6ff" fill-opacity="1"><g transform="translate(185.730728, 245.120638)"><g><path d="M 10.359375 0.40625 C 8.640625 0.40625 7.1875 0.148438 6 -0.359375 C 4.8125 -0.867188 3.914062 -1.535156 3.3125 -2.359375 C 2.707031 -3.191406 2.40625 -4.101562 2.40625 -5.09375 C 2.40625 -6.59375 3.085938 -7.34375 4.453125 -7.34375 C 4.484375 -2.445312 6.503906 0 10.515625 0 C 12.390625 0 13.832031 -0.539062 14.84375 -1.625 C 15.863281 -2.707031 16.375 -4.265625 16.375 -6.296875 C 16.375 -7.453125 16.148438 -8.414062 15.703125 -9.1875 C 15.265625 -9.96875 14.570312 -10.691406 13.625 -11.359375 C 12.675781 -12.023438 11.425781 -12.742188 9.875 -13.515625 C 8.582031 -14.191406 7.425781 -14.875 6.40625 -15.5625 C 5.394531 -16.257812 4.59375 -17.113281 4 -18.125 C 3.414062 -19.144531 3.125 -20.445312 3.125 -22.03125 C 3.125 -24.164062 3.816406 -25.867188 5.203125 -27.140625 C 6.597656 -28.410156 8.488281 -29.046875 10.875 -29.046875 C 12.289062 -29.046875 13.53125 -28.835938 14.59375 -28.421875 C 15.664062 -28.015625 16.503906 -27.46875 17.109375 -26.78125 C 17.710938 -26.101562 18.015625 -25.347656 18.015625 -24.515625 C 18.015625 -23.867188 17.820312 -23.363281 17.4375 -23 C 17.050781 -22.644531 16.507812 -22.46875 15.8125 -22.46875 C 15.8125 -24.613281 15.410156 -26.179688 14.609375 -27.171875 C 13.804688 -28.160156 12.546875 -28.65625 10.828125 -28.65625 C 9.117188 -28.65625 7.796875 -28.128906 6.859375 -27.078125 C 5.921875 -26.035156 5.453125 -24.578125 5.453125 -22.703125 C 5.453125 -21.472656 5.671875 -20.460938 6.109375 -19.671875 C 6.554688 -18.890625 7.226562 -18.203125 8.125 -17.609375 C 9.019531 -17.023438 10.125 -16.398438 11.4375 -15.734375 C 12.71875 -15.054688 13.910156 -14.367188 15.015625 -13.671875 C 16.128906 -12.984375 17.035156 -12.128906 17.734375 -11.109375 C 18.429688 -10.097656 18.78125 -8.789062 18.78125 -7.1875 C 18.78125 -4.90625 18.050781 -3.066406 16.59375 -1.671875 C 15.132812 -0.285156 13.054688 0.40625 10.359375 0.40625 Z M 10.359375 0.40625 "/></g></g></g><g fill="#38b6ff" fill-opacity="1"><g transform="translate(208.441801, 245.120638)"><g><path d="M 1.71875 0 L 1.71875 -0.40625 L 2.8125 -0.40625 C 3.851562 -0.40625 4.582031 -0.625 5 -1.0625 C 5.414062 -1.5 5.625 -2.335938 5.625 -3.578125 L 5.625 -25.15625 C 5.625 -26.332031 5.414062 -27.140625 5 -27.578125 C 4.582031 -28.023438 3.851562 -28.25 2.8125 -28.25 L 1.71875 -28.25 L 1.71875 -28.65625 L 20.78125 -28.65625 L 21.03125 -21.828125 L 20.625 -21.828125 L 20.5 -24.109375 C 20.425781 -25.691406 20.109375 -26.773438 19.546875 -27.359375 C 18.984375 -27.953125 17.910156 -28.25 16.328125 -28.25 L 8.34375 -28.25 L 8.34375 -15.203125 L 18.296875 -15.203125 L 18.296875 -14.8125 L 8.34375 -14.8125 L 8.34375 -0.40625 L 17.5 -0.40625 C 19.15625 -0.40625 20.273438 -0.695312 20.859375 -1.28125 C 21.453125 -1.875 21.789062 -2.957031 21.875 -4.53125 L 21.984375 -6.828125 L 22.390625 -6.828125 L 22.109375 0 Z M 1.71875 0 "/></g></g></g><g fill="#38b6ff" fill-opacity="1"><g transform="translate(234.643745, 245.120638)"><g><path d="M 1.71875 0 L 1.71875 -0.40625 L 2.8125 -0.40625 C 3.851562 -0.40625 4.582031 -0.625 5 -1.0625 C 5.414062 -1.5 5.625 -2.335938 5.625 -3.578125 L 5.625 -25.15625 C 5.625 -26.332031 5.414062 -27.140625 5 -27.578125 C 4.582031 -28.023438 3.851562 -28.25 2.8125 -28.25 L 1.71875 -28.25 L 1.71875 -28.65625 L 20.828125 -28.65625 L 21.0625 -21.828125 L 20.671875 -21.828125 L 20.546875 -24.109375 C 20.460938 -25.691406 20.132812 -26.773438 19.5625 -27.359375 C 18.988281 -27.953125 17.925781 -28.25 16.375 -28.25 L 8.34375 -28.25 L 8.34375 -14.28125 L 18.34375 -14.28125 L 18.34375 -13.890625 L 8.34375 -13.890625 L 8.34375 -3.578125 C 8.34375 -2.335938 8.550781 -1.5 8.96875 -1.0625 C 9.382812 -0.625 10.113281 -0.40625 11.15625 -0.40625 L 12.71875 -0.40625 L 12.71875 0 Z M 1.71875 0 "/></g></g></g><g fill="#38b6ff" fill-opacity="1"><g transform="translate(259.48144, 245.120638)"><g><path d="M 6.375 0 L 6.375 -0.40625 L 7.78125 -0.40625 C 8.820312 -0.40625 9.550781 -0.625 9.96875 -1.0625 C 10.382812 -1.5 10.59375 -2.335938 10.59375 -3.578125 L 10.59375 -13.328125 L 3.171875 -26.328125 C 2.710938 -27.128906 2.304688 -27.648438 1.953125 -27.890625 C 1.609375 -28.128906 1.050781 -28.25 0.28125 -28.25 L -0.328125 -28.25 L -0.328125 -28.65625 L 8.953125 -28.65625 L 8.953125 -28.25 L 7.578125 -28.25 C 6.941406 -28.25 6.5 -28.175781 6.25 -28.03125 C 6.007812 -27.882812 5.890625 -27.660156 5.890625 -27.359375 C 5.890625 -27.097656 5.960938 -26.789062 6.109375 -26.4375 C 6.265625 -26.09375 6.472656 -25.679688 6.734375 -25.203125 L 10.1875 -19.09375 C 10.726562 -18.132812 11.25 -17.1875 11.75 -16.25 C 12.257812 -15.3125 12.703125 -14.46875 13.078125 -13.71875 C 13.367188 -14.3125 13.679688 -14.953125 14.015625 -15.640625 C 14.359375 -16.335938 14.78125 -17.144531 15.28125 -18.0625 L 18.703125 -24.75 C 18.960938 -25.289062 19.179688 -25.765625 19.359375 -26.171875 C 19.535156 -26.585938 19.625 -26.929688 19.625 -27.203125 C 19.625 -27.578125 19.46875 -27.84375 19.15625 -28 C 18.851562 -28.164062 18.300781 -28.25 17.5 -28.25 L 15.890625 -28.25 L 15.890625 -28.65625 L 23.828125 -28.65625 L 23.828125 -28.25 L 22.796875 -28.25 C 22.046875 -28.25 21.46875 -28.085938 21.0625 -27.765625 C 20.664062 -27.441406 20.210938 -26.773438 19.703125 -25.765625 L 13.328125 -13.328125 L 13.328125 -3.578125 C 13.328125 -2.335938 13.523438 -1.5 13.921875 -1.0625 C 14.328125 -0.625 15.0625 -0.40625 16.125 -0.40625 L 17.5 -0.40625 L 17.5 0 Z M 6.375 0 "/></g></g></g><g fill="#38b6ff" fill-opacity="1"><g transform="translate(136.152406, 273.618673)"><g><path d="M 0.390625 0 L 0.390625 -0.140625 L 1.40625 -0.140625 C 1.601562 -0.140625 1.769531 -0.1875 1.90625 -0.28125 C 2.050781 -0.375 2.125 -0.609375 2.125 -0.984375 L 2.125 -9 C 2.125 -9.375 2.050781 -9.609375 1.90625 -9.703125 C 1.769531 -9.804688 1.601562 -9.859375 1.40625 -9.859375 L 0.390625 -9.859375 L 0.390625 -10 L 4.21875 -10 L 7.109375 -2.359375 L 9.484375 -10 L 12.9375 -10 L 12.9375 -9.859375 L 12.34375 -9.859375 C 12.144531 -9.859375 11.976562 -9.804688 11.84375 -9.703125 C 11.707031 -9.597656 11.640625 -9.347656 11.640625 -8.953125 L 11.640625 -1.046875 C 11.640625 -0.648438 11.707031 -0.398438 11.84375 -0.296875 C 11.976562 -0.191406 12.144531 -0.140625 12.34375 -0.140625 L 12.9375 -0.140625 L 12.9375 0 L 8.453125 0 L 8.453125 -0.140625 L 8.59375 -0.140625 C 8.894531 -0.140625 9.117188 -0.179688 9.265625 -0.265625 C 9.410156 -0.359375 9.484375 -0.578125 9.484375 -0.921875 L 9.484375 -9.484375 L 6.515625 0 L 5.84375 0 L 2.265625 -9.40625 L 2.265625 -1.046875 C 2.265625 -0.648438 2.351562 -0.398438 2.53125 -0.296875 C 2.71875 -0.191406 2.972656 -0.140625 3.296875 -0.140625 L 3.859375 -0.140625 L 3.859375 0 Z M 0.390625 0 "/></g></g></g><g fill="#38b6ff" fill-opacity="1"><g transform="translate(154.526981, 273.618673)"><g><path d="M 5.515625 0.140625 C 4.453125 0.140625 3.566406 -0.0703125 2.859375 -0.5 C 2.160156 -0.925781 1.632812 -1.523438 1.28125 -2.296875 C 0.9375 -3.078125 0.765625 -3.988281 0.765625 -5.03125 C 0.765625 -6.0625 0.9375 -6.957031 1.28125 -7.71875 C 1.632812 -8.488281 2.160156 -9.085938 2.859375 -9.515625 C 3.566406 -9.941406 4.457031 -10.15625 5.53125 -10.15625 C 6.539062 -10.15625 7.394531 -9.941406 8.09375 -9.515625 C 8.800781 -9.085938 9.335938 -8.488281 9.703125 -7.71875 C 10.066406 -6.945312 10.25 -6.046875 10.25 -5.015625 C 10.25 -3.972656 10.0625 -3.066406 9.6875 -2.296875 C 9.320312 -1.523438 8.785156 -0.925781 8.078125 -0.5 C 7.378906 -0.0703125 6.523438 0.140625 5.515625 0.140625 Z M 5.515625 0 C 6.347656 0 6.953125 -0.394531 7.328125 -1.1875 C 7.703125 -1.976562 7.890625 -3.253906 7.890625 -5.015625 C 7.890625 -6.765625 7.703125 -8.035156 7.328125 -8.828125 C 6.960938 -9.617188 6.363281 -10.015625 5.53125 -10.015625 C 4.6875 -10.015625 4.070312 -9.617188 3.6875 -8.828125 C 3.3125 -8.035156 3.125 -6.765625 3.125 -5.015625 C 3.125 -3.253906 3.3125 -1.976562 3.6875 -1.1875 C 4.0625 -0.394531 4.671875 0 5.515625 0 Z M 5.515625 0 "/></g></g></g><g fill="#38b6ff" fill-opacity="1"><g transform="translate(170.592838, 273.618673)"><g><path d="M 0.390625 0 L 0.390625 -0.140625 L 0.984375 -0.140625 C 1.171875 -0.140625 1.332031 -0.1875 1.46875 -0.28125 C 1.613281 -0.375 1.6875 -0.609375 1.6875 -0.984375 L 1.6875 -9 C 1.6875 -9.375 1.613281 -9.609375 1.46875 -9.703125 C 1.332031 -9.804688 1.171875 -9.859375 0.984375 -9.859375 L 0.390625 -9.859375 L 0.390625 -10 L 4.90625 -10 C 6.226562 -10 7.195312 -9.773438 7.8125 -9.328125 C 8.425781 -8.890625 8.734375 -8.25 8.734375 -7.40625 C 8.734375 -6.90625 8.632812 -6.484375 8.4375 -6.140625 C 8.25 -5.796875 8 -5.507812 7.6875 -5.28125 C 7.375 -5.0625 7.03125 -4.890625 6.65625 -4.765625 L 8.21875 -2.109375 C 8.5625 -1.515625 8.832031 -1.078125 9.03125 -0.796875 C 9.238281 -0.515625 9.40625 -0.332031 9.53125 -0.25 C 9.65625 -0.175781 9.785156 -0.140625 9.921875 -0.140625 L 9.953125 -0.140625 L 9.953125 0 L 9.484375 0 C 8.929688 0 8.460938 -0.03125 8.078125 -0.09375 C 7.691406 -0.164062 7.363281 -0.296875 7.09375 -0.484375 C 6.820312 -0.679688 6.582031 -0.976562 6.375 -1.375 L 4.5625 -4.671875 L 3.90625 -4.671875 L 3.90625 -0.984375 C 3.90625 -0.609375 3.976562 -0.375 4.125 -0.28125 C 4.269531 -0.1875 4.4375 -0.140625 4.625 -0.140625 L 5.21875 -0.140625 L 5.21875 0 Z M 3.90625 -4.8125 L 4.6875 -4.8125 C 5.289062 -4.8125 5.722656 -5.007812 5.984375 -5.40625 C 6.253906 -5.8125 6.390625 -6.457031 6.390625 -7.34375 C 6.390625 -8.21875 6.253906 -8.851562 5.984375 -9.25 C 5.710938 -9.65625 5.269531 -9.859375 4.65625 -9.859375 L 3.90625 -9.859375 Z M 3.90625 -4.8125 "/></g></g></g><g fill="#38b6ff" fill-opacity="1"><g transform="translate(185.539324, 273.618673)"><g><path d="M 2.15625 0 L 2.15625 -0.140625 L 2.75 -0.140625 C 2.945312 -0.140625 3.113281 -0.191406 3.25 -0.296875 C 3.382812 -0.398438 3.453125 -0.648438 3.453125 -1.046875 L 3.453125 -9.859375 L 2.5625 -9.859375 C 1.800781 -9.859375 1.25 -9.707031 0.90625 -9.40625 C 0.5625 -9.101562 0.367188 -8.597656 0.328125 -7.890625 L 0.28125 -7.28125 L 0.140625 -7.28125 L 0.234375 -10 L 8.90625 -10 L 9 -7.28125 L 8.859375 -7.28125 L 8.8125 -7.890625 C 8.769531 -8.597656 8.578125 -9.101562 8.234375 -9.40625 C 7.890625 -9.707031 7.335938 -9.859375 6.578125 -9.859375 L 5.6875 -9.859375 L 5.6875 -1.046875 C 5.6875 -0.648438 5.753906 -0.398438 5.890625 -0.296875 C 6.023438 -0.191406 6.191406 -0.140625 6.390625 -0.140625 L 6.984375 -0.140625 L 6.984375 0 Z M 2.15625 0 "/></g></g></g><g fill="#38b6ff" fill-opacity="1"><g transform="translate(199.730237, 273.618673)"><g><path d="M 5.921875 0.140625 C 4.765625 0.140625 3.804688 -0.0703125 3.046875 -0.5 C 2.285156 -0.925781 1.710938 -1.523438 1.328125 -2.296875 C 0.953125 -3.066406 0.765625 -3.972656 0.765625 -5.015625 C 0.765625 -6.023438 0.960938 -6.910156 1.359375 -7.671875 C 1.753906 -8.441406 2.335938 -9.046875 3.109375 -9.484375 C 3.890625 -9.921875 4.847656 -10.140625 5.984375 -10.140625 C 7.148438 -10.140625 8.023438 -9.984375 8.609375 -9.671875 C 9.191406 -9.359375 9.484375 -8.972656 9.484375 -8.515625 C 9.484375 -8.179688 9.328125 -7.898438 9.015625 -7.671875 C 8.710938 -7.441406 8.269531 -7.328125 7.6875 -7.328125 C 7.6875 -8.265625 7.550781 -8.941406 7.28125 -9.359375 C 7.019531 -9.785156 6.546875 -10 5.859375 -10 C 4.910156 -10 4.21875 -9.601562 3.78125 -8.8125 C 3.34375 -8.019531 3.125 -6.753906 3.125 -5.015625 C 3.125 -3.253906 3.363281 -1.976562 3.84375 -1.1875 C 4.320312 -0.40625 5.082031 -0.015625 6.125 -0.015625 C 6.300781 -0.015625 6.476562 -0.0195312 6.65625 -0.03125 C 6.832031 -0.0507812 7 -0.078125 7.15625 -0.109375 L 7.15625 -3.5625 C 7.15625 -3.9375 7.070312 -4.195312 6.90625 -4.34375 C 6.738281 -4.488281 6.488281 -4.5625 6.15625 -4.5625 L 5.984375 -4.5625 L 5.984375 -4.703125 L 10.375 -4.703125 L 10.375 -4.5625 L 10.1875 -4.5625 C 9.90625 -4.5625 9.695312 -4.484375 9.5625 -4.328125 C 9.425781 -4.179688 9.359375 -3.910156 9.359375 -3.515625 L 9.359375 -0.609375 C 8.816406 -0.359375 8.265625 -0.171875 7.703125 -0.046875 C 7.148438 0.078125 6.554688 0.140625 5.921875 0.140625 Z M 5.921875 0.140625 "/></g></g></g><g fill="#38b6ff" fill-opacity="1"><g transform="translate(215.544243, 273.618673)"><g><path d="M 0.0625 0 L 0.0625 -0.140625 L 0.625 -0.140625 C 0.882812 -0.140625 1.09375 -0.210938 1.25 -0.359375 C 1.40625 -0.515625 1.550781 -0.78125 1.6875 -1.15625 L 4.921875 -10 L 6.296875 -10 L 9.4375 -1.140625 C 9.570312 -0.765625 9.71875 -0.503906 9.875 -0.359375 C 10.03125 -0.210938 10.238281 -0.140625 10.5 -0.140625 L 10.546875 -0.140625 L 10.546875 0 L 5.921875 0 L 5.921875 -0.140625 L 6.671875 -0.140625 C 7.109375 -0.140625 7.328125 -0.289062 7.328125 -0.59375 C 7.328125 -0.738281 7.273438 -0.972656 7.171875 -1.296875 L 6.375 -3.65625 L 2.765625 -3.65625 L 1.953125 -1.484375 C 1.878906 -1.296875 1.820312 -1.128906 1.78125 -0.984375 C 1.75 -0.835938 1.734375 -0.710938 1.734375 -0.609375 C 1.734375 -0.429688 1.789062 -0.304688 1.90625 -0.234375 C 2.019531 -0.171875 2.191406 -0.140625 2.421875 -0.140625 L 3.421875 -0.140625 L 3.421875 0 Z M 2.8125 -3.796875 L 6.328125 -3.796875 L 5.453125 -6.40625 C 5.378906 -6.632812 5.289062 -6.90625 5.1875 -7.21875 C 5.09375 -7.53125 5 -7.847656 4.90625 -8.171875 C 4.820312 -8.492188 4.753906 -8.769531 4.703125 -9 C 4.628906 -8.78125 4.535156 -8.515625 4.421875 -8.203125 C 4.316406 -7.898438 4.207031 -7.597656 4.09375 -7.296875 C 3.988281 -6.992188 3.894531 -6.734375 3.8125 -6.515625 Z M 2.8125 -3.796875 "/></g></g></g><g fill="#38b6ff" fill-opacity="1"><g transform="translate(231.134368, 273.618673)"><g><path d="M 5.921875 0.140625 C 4.765625 0.140625 3.804688 -0.0703125 3.046875 -0.5 C 2.285156 -0.925781 1.710938 -1.523438 1.328125 -2.296875 C 0.953125 -3.066406 0.765625 -3.972656 0.765625 -5.015625 C 0.765625 -6.023438 0.960938 -6.910156 1.359375 -7.671875 C 1.753906 -8.441406 2.335938 -9.046875 3.109375 -9.484375 C 3.890625 -9.921875 4.847656 -10.140625 5.984375 -10.140625 C 7.148438 -10.140625 8.023438 -9.984375 8.609375 -9.671875 C 9.191406 -9.359375 9.484375 -8.972656 9.484375 -8.515625 C 9.484375 -8.179688 9.328125 -7.898438 9.015625 -7.671875 C 8.710938 -7.441406 8.269531 -7.328125 7.6875 -7.328125 C 7.6875 -8.265625 7.550781 -8.941406 7.28125 -9.359375 C 7.019531 -9.785156 6.546875 -10 5.859375 -10 C 4.910156 -10 4.21875 -9.601562 3.78125 -8.8125 C 3.34375 -8.019531 3.125 -6.753906 3.125 -5.015625 C 3.125 -3.253906 3.363281 -1.976562 3.84375 -1.1875 C 4.320312 -0.40625 5.082031 -0.015625 6.125 -0.015625 C 6.300781 -0.015625 6.476562 -0.0195312 6.65625 -0.03125 C 6.832031 -0.0507812 7 -0.078125 7.15625 -0.109375 L 7.15625 -3.5625 C 7.15625 -3.9375 7.070312 -4.195312 6.90625 -4.34375 C 6.738281 -4.488281 6.488281 -4.5625 6.15625 -4.5625 L 5.984375 -4.5625 L 5.984375 -4.703125 L 10.375 -4.703125 L 10.375 -4.5625 L 10.1875 -4.5625 C 9.90625 -4.5625 9.695312 -4.484375 9.5625 -4.328125 C 9.425781 -4.179688 9.359375 -3.910156 9.359375 -3.515625 L 9.359375 -0.609375 C 8.816406 -0.359375 8.265625 -0.171875 7.703125 -0.046875 C 7.148438 0.078125 6.554688 0.140625 5.921875 0.140625 Z M 5.921875 0.140625 "/></g></g></g><g fill="#38b6ff" fill-opacity="1"><g transform="translate(246.948374, 273.618673)"><g><path d="M 0.390625 0 L 0.390625 -0.140625 L 0.984375 -0.140625 C 1.179688 -0.140625 1.347656 -0.1875 1.484375 -0.28125 C 1.617188 -0.375 1.6875 -0.609375 1.6875 -0.984375 L 1.6875 -8.953125 C 1.6875 -9.347656 1.617188 -9.597656 1.484375 -9.703125 C 1.347656 -9.804688 1.179688 -9.859375 0.984375 -9.859375 L 0.390625 -9.859375 L 0.390625 -10 L 8.140625 -10 L 8.21875 -7.421875 L 8.078125 -7.421875 L 8.03125 -7.890625 C 7.96875 -8.597656 7.765625 -9.101562 7.421875 -9.40625 C 7.085938 -9.707031 6.546875 -9.859375 5.796875 -9.859375 L 3.921875 -9.859375 L 3.921875 -5.296875 L 7.234375 -5.296875 L 7.234375 -5.15625 L 3.921875 -5.15625 L 3.921875 -0.140625 L 6.265625 -0.140625 C 7.015625 -0.140625 7.554688 -0.285156 7.890625 -0.578125 C 8.234375 -0.878906 8.441406 -1.390625 8.515625 -2.109375 L 8.546875 -2.578125 L 8.6875 -2.578125 L 8.59375 0 Z M 0.390625 0 "/></g></g></g><g fill="#38b6ff" fill-opacity="1"><g transform="translate(261.139287, 273.618673)"><g><path d="M 3.5625 0.140625 C 2.789062 0.140625 2.175781 0.0390625 1.71875 -0.15625 C 1.257812 -0.363281 0.925781 -0.617188 0.71875 -0.921875 C 0.519531 -1.234375 0.421875 -1.546875 0.421875 -1.859375 C 0.421875 -2.171875 0.492188 -2.414062 0.640625 -2.59375 C 0.796875 -2.78125 0.992188 -2.914062 1.234375 -3 C 1.472656 -3.082031 1.726562 -3.125 2 -3.125 C 2 -2.257812 2.078125 -1.601562 2.234375 -1.15625 C 2.398438 -0.707031 2.625 -0.398438 2.90625 -0.234375 C 3.1875 -0.078125 3.507812 0 3.875 0 C 4.4375 0 4.894531 -0.144531 5.25 -0.4375 C 5.613281 -0.738281 5.796875 -1.191406 5.796875 -1.796875 C 5.796875 -2.222656 5.695312 -2.578125 5.5 -2.859375 C 5.300781 -3.148438 5.019531 -3.40625 4.65625 -3.625 C 4.289062 -3.84375 3.84375 -4.054688 3.3125 -4.265625 C 2.664062 -4.535156 2.148438 -4.816406 1.765625 -5.109375 C 1.378906 -5.410156 1.101562 -5.738281 0.9375 -6.09375 C 0.78125 -6.457031 0.703125 -6.867188 0.703125 -7.328125 C 0.703125 -8.171875 1.019531 -8.847656 1.65625 -9.359375 C 2.300781 -9.878906 3.1875 -10.140625 4.3125 -10.140625 C 5.195312 -10.140625 5.882812 -9.984375 6.375 -9.671875 C 6.863281 -9.359375 7.109375 -8.976562 7.109375 -8.53125 C 7.109375 -8.1875 6.960938 -7.898438 6.671875 -7.671875 C 6.390625 -7.453125 5.960938 -7.34375 5.390625 -7.34375 C 5.390625 -8.25 5.273438 -8.910156 5.046875 -9.328125 C 4.816406 -9.753906 4.425781 -9.96875 3.875 -9.96875 C 3.632812 -9.96875 3.390625 -9.921875 3.140625 -9.828125 C 2.898438 -9.734375 2.703125 -9.566406 2.546875 -9.328125 C 2.390625 -9.097656 2.3125 -8.769531 2.3125 -8.34375 C 2.3125 -7.988281 2.390625 -7.671875 2.546875 -7.390625 C 2.703125 -7.117188 2.960938 -6.863281 3.328125 -6.625 C 3.691406 -6.382812 4.1875 -6.140625 4.8125 -5.890625 C 5.78125 -5.503906 6.46875 -5.082031 6.875 -4.625 C 7.289062 -4.175781 7.5 -3.609375 7.5 -2.921875 C 7.5 -2.316406 7.34375 -1.785156 7.03125 -1.328125 C 6.726562 -0.867188 6.285156 -0.507812 5.703125 -0.25 C 5.117188 0.0078125 4.40625 0.140625 3.5625 0.140625 Z M 3.5625 0.140625 "/></g></g></g><path stroke-linecap="round" transform="matrix(0.750948, 0, 0, 0.75, 51.815439, 269.118674)" fill="none" stroke-linejoin="miter" d="M 0.500656 0.498019 L 98.137647 0.498019 " stroke="#38b6ff" stroke-width="1" stroke-opacity="1" stroke-miterlimit="4"/><path stroke-linecap="round" transform="matrix(0.750948, 0, 0, 0.75, 51.815439, 269.118674)" fill="none" stroke-linejoin="round" d="M 96.389857 -1.001981 L 98.387332 0.498019 L 96.389857 1.998019 " stroke="#38b6ff" stroke-width="1" stroke-opacity="1" stroke-miterlimit="4"/><g clip-path="url(#a97f262c16)"><path fill="#38b6ff" d="M 188.195312 156.738281 C 188.3125 156.738281 188.433594 156.734375 188.550781 156.734375 L 188.550781 107.859375 L 199.179688 115.613281 L 199.179688 157.398438 C 199.296875 157.414062 199.417969 157.429688 199.535156 157.445312 L 199.535156 115.433594 L 188.195312 107.160156 L 176.855469 115.433594 L 176.855469 157.550781 C 180.46875 157.035156 184.269531 156.753906 188.195312 156.738281 Z M 188.195312 156.738281 " fill-opacity="1" fill-rule="nonzero"/></g><path fill="#38b6ff" d="M 174.90625 125.773438 L 163.566406 134.046875 L 163.566406 160.769531 C 167.007812 159.53125 170.820312 158.542969 174.90625 157.851562 Z M 174.90625 125.773438 " fill-opacity="1" fill-rule="nonzero"/><path fill="#38b6ff" d="M 161.613281 140.335938 L 154.402344 145.601562 L 154.402344 165.21875 C 156.511719 163.84375 158.929688 162.601562 161.613281 161.515625 Z M 161.613281 140.335938 " fill-opacity="1" fill-rule="nonzero"/><path fill="#38b6ff" d="M 201.828125 126.472656 L 212.460938 134.230469 L 212.460938 160.378906 C 212.578125 160.417969 212.695312 160.457031 212.8125 160.496094 L 212.8125 134.046875 L 201.472656 125.773438 L 201.472656 157.726562 C 201.59375 157.746094 201.710938 157.765625 201.828125 157.785156 Z M 201.828125 126.472656 " fill-opacity="1" fill-rule="nonzero"/><path fill="#38b6ff" d="M 215.121094 141.039062 L 221.625 145.785156 L 221.625 164.519531 C 221.742188 164.589844 221.863281 164.660156 221.976562 164.730469 L 221.976562 145.601562 L 214.765625 140.335938 L 214.765625 161.210938 C 214.882812 161.257812 215 161.304688 215.117188 161.347656 L 215.117188 141.039062 Z M 215.121094 141.039062 " fill-opacity="1" fill-rule="nonzero"/><g clip-path="url(#e233ecc1da)"><path fill="#38b6ff" d="M 212.8125 165.09375 C 212.695312 165.054688 212.578125 165.011719 212.460938 164.972656 C 209.199219 163.875 205.628906 163 201.828125 162.382812 C 201.710938 162.363281 201.59375 162.34375 201.476562 162.324219 C 200.835938 162.226562 200.1875 162.128906 199.535156 162.042969 C 199.417969 162.03125 199.300781 162.015625 199.183594 162 C 195.800781 161.570312 192.261719 161.335938 188.617188 161.335938 C 188.59375 161.335938 188.574219 161.335938 188.550781 161.335938 C 188.433594 161.335938 188.3125 161.339844 188.195312 161.339844 C 184.269531 161.359375 180.46875 161.644531 176.855469 162.160156 C 176.199219 162.253906 175.546875 162.355469 174.902344 162.464844 C 170.820312 163.15625 167.007812 164.148438 163.566406 165.390625 C 158.914062 167.070312 154.941406 169.203125 151.90625 171.664062 C 162.304688 167.96875 174.960938 165.796875 188.617188 165.796875 C 202.273438 165.796875 214.929688 167.96875 225.328125 171.664062 C 222.105469 169.054688 217.832031 166.8125 212.8125 165.09375 Z M 212.8125 165.09375 " fill-opacity="1" fill-rule="nonzero"/></g></svg>