<svg xmlns="http://www.w3.org/2000/svg" xmlns:xlink="http://www.w3.org/1999/xlink" width="100" zoomAndPan="magnify" viewBox="0 0 75 74.999997" height="100" preserveAspectRatio="xMidYMid meet" version="1.0"><defs><clipPath id="686bf45520"><path d="M 12.222656 9.007812 L 62.472656 9.007812 L 62.472656 59.257812 L 12.222656 59.257812 Z M 12.222656 9.007812 " clip-rule="nonzero"/></clipPath><clipPath id="5ba4008b96"><path d="M 31 15.875 L 43 15.875 L 43 42 L 31 42 Z M 31 15.875 " clip-rule="nonzero"/></clipPath><clipPath id="3b999065f3"><path d="M 18.984375 42 L 55.734375 42 L 55.734375 48.125 L 18.984375 48.125 Z M 18.984375 42 " clip-rule="nonzero"/></clipPath></defs><g clip-path="url(#686bf45520)"><path fill="#38b6ff" d="M 61.203125 41.019531 C 60.5625 43.199219 59.582031 45.269531 58.371094 47.175781 C 57.367188 48.726562 56.226562 50.183594 54.945312 51.511719 C 54.78125 51.691406 54.597656 51.855469 54.421875 52.023438 C 54.242188 52.191406 54.066406 52.367188 53.886719 52.53125 L 53.332031 53.011719 L 53.050781 53.253906 L 52.765625 53.484375 L 52.191406 53.941406 C 51.996094 54.089844 51.792969 54.230469 51.597656 54.378906 C 51.207031 54.675781 50.792969 54.9375 50.386719 55.214844 C 50.328125 55.253906 50.265625 55.296875 50.203125 55.339844 C 50.136719 55.378906 50.066406 55.421875 49.996094 55.464844 C 49.851562 55.550781 49.695312 55.640625 49.53125 55.738281 C 49.207031 55.941406 48.824219 56.136719 48.410156 56.355469 C 48.304688 56.410156 48.203125 56.46875 48.089844 56.519531 C 47.980469 56.570312 47.867188 56.625 47.753906 56.679688 C 47.523438 56.785156 47.28125 56.894531 47.035156 57.007812 C 46.53125 57.207031 46.003906 57.441406 45.429688 57.628906 C 43.164062 58.449219 40.335938 58.957031 37.496094 58.96875 C 34.65625 58.957031 31.824219 58.449219 29.558594 57.628906 C 28.984375 57.441406 28.457031 57.207031 27.953125 57.007812 C 27.707031 56.894531 27.46875 56.785156 27.238281 56.679688 C 27.121094 56.625 27.007812 56.570312 26.898438 56.519531 C 26.789062 56.46875 26.683594 56.410156 26.578125 56.355469 C 26.164062 56.136719 25.78125 55.941406 25.457031 55.738281 C 25.292969 55.640625 25.136719 55.550781 24.996094 55.464844 C 24.921875 55.421875 24.855469 55.378906 24.789062 55.339844 C 24.722656 55.296875 24.664062 55.253906 24.605469 55.214844 C 23.0625 54.203125 21.613281 53.054688 20.296875 51.765625 C 18.90625 50.378906 17.691406 48.824219 16.621094 47.175781 C 15.40625 45.269531 14.425781 43.199219 13.785156 41.019531 C 13.121094 38.84375 12.8125 36.5625 12.792969 34.28125 C 12.8125 31.996094 13.121094 29.714844 13.785156 27.542969 C 14.425781 25.359375 15.40625 23.289062 16.621094 21.382812 C 17.621094 19.832031 18.761719 18.375 20.042969 17.046875 C 20.207031 16.867188 20.394531 16.707031 20.570312 16.535156 C 20.746094 16.367188 20.921875 16.191406 21.105469 16.03125 L 21.9375 15.304688 L 22.226562 15.074219 L 22.800781 14.617188 C 22.996094 14.46875 23.195312 14.328125 23.394531 14.179688 C 23.78125 13.882812 24.199219 13.621094 24.605469 13.34375 C 24.664062 13.304688 24.722656 13.261719 24.789062 13.21875 C 24.855469 13.179688 24.921875 13.140625 24.996094 13.097656 C 25.136719 13.011719 25.292969 12.917969 25.457031 12.820312 C 25.78125 12.617188 26.164062 12.425781 26.578125 12.203125 C 26.683594 12.148438 26.789062 12.089844 26.898438 12.039062 C 27.007812 11.988281 27.121094 11.933594 27.238281 11.882812 C 27.46875 11.773438 27.707031 11.664062 27.953125 11.550781 C 28.457031 11.351562 28.984375 11.117188 29.558594 10.933594 C 31.824219 10.109375 34.65625 9.601562 37.496094 9.589844 C 40.335938 9.601562 43.164062 10.109375 45.429688 10.933594 C 46.003906 11.117188 46.53125 11.351562 47.035156 11.550781 C 47.28125 11.664062 47.519531 11.773438 47.75 11.882812 C 47.867188 11.933594 47.980469 11.988281 48.089844 12.039062 C 48.199219 12.089844 48.304688 12.148438 48.410156 12.203125 C 48.824219 12.425781 49.207031 12.617188 49.53125 12.820312 C 49.695312 12.917969 49.851562 13.011719 49.996094 13.097656 C 50.066406 13.140625 50.136719 13.179688 50.199219 13.21875 C 50.265625 13.261719 50.328125 13.304688 50.386719 13.34375 C 51.929688 14.355469 53.378906 15.503906 54.695312 16.792969 C 56.082031 18.179688 57.296875 19.734375 58.371094 21.382812 C 59.582031 23.289062 60.5625 25.359375 61.203125 27.542969 C 61.871094 29.714844 62.179688 31.996094 62.199219 34.28125 C 62.179688 36.5625 61.871094 38.84375 61.203125 41.019531 Z M 62.765625 34.261719 C 62.746094 31.929688 62.429688 29.597656 61.753906 27.375 C 61.101562 25.144531 60.101562 23.027344 58.851562 21.085938 L 58.253906 20.183594 C 58.253906 20.183594 58.082031 19.941406 57.820312 19.578125 C 57.570312 19.207031 57.1875 18.75 56.824219 18.28125 C 56.429688 17.835938 56.050781 17.375 55.734375 17.058594 C 55.425781 16.738281 55.21875 16.523438 55.21875 16.523438 C 55.21875 16.523438 55.167969 16.46875 55.074219 16.378906 C 54.980469 16.289062 54.84375 16.160156 54.683594 16.003906 C 54.371094 15.6875 53.917969 15.300781 53.472656 14.90625 C 53.242188 14.71875 53.007812 14.535156 52.789062 14.359375 C 52.679688 14.273438 52.574219 14.191406 52.476562 14.109375 C 52.371094 14.035156 52.273438 13.964844 52.183594 13.898438 C 51.820312 13.636719 51.582031 13.464844 51.582031 13.464844 C 51.582031 13.464844 51.527344 13.421875 51.441406 13.367188 C 51.359375 13.3125 51.246094 13.234375 51.132812 13.160156 C 50.910156 13.011719 50.683594 12.859375 50.683594 12.859375 C 50.625 12.820312 50.5625 12.777344 50.496094 12.734375 C 50.429688 12.691406 50.359375 12.648438 50.285156 12.605469 C 50.140625 12.515625 49.980469 12.421875 49.8125 12.320312 C 49.480469 12.113281 49.089844 11.914062 48.664062 11.6875 C 48.558594 11.632812 48.453125 11.574219 48.339844 11.519531 C 48.226562 11.464844 48.109375 11.414062 47.992188 11.359375 C 47.757812 11.25 47.511719 11.136719 47.261719 11.019531 C 46.742188 10.816406 46.203125 10.574219 45.617188 10.382812 C 43.296875 9.542969 40.398438 9.019531 37.496094 9.007812 C 34.589844 9.019531 31.691406 9.542969 29.371094 10.382812 C 28.785156 10.574219 28.246094 10.816406 27.730469 11.019531 C 27.476562 11.136719 27.234375 11.25 26.996094 11.359375 C 26.878906 11.414062 26.761719 11.464844 26.648438 11.519531 C 26.539062 11.574219 26.429688 11.632812 26.324219 11.6875 C 25.898438 11.914062 25.507812 12.113281 25.175781 12.320312 C 25.007812 12.421875 24.851562 12.515625 24.703125 12.605469 C 24.628906 12.648438 24.558594 12.691406 24.492188 12.734375 C 24.425781 12.777344 24.363281 12.820312 24.304688 12.859375 C 24.304688 12.859375 24.078125 13.011719 23.855469 13.160156 C 23.742188 13.234375 23.632812 13.3125 23.546875 13.367188 C 23.460938 13.421875 23.410156 13.464844 23.410156 13.464844 C 23.410156 13.464844 23.167969 13.636719 22.804688 13.898438 C 22.714844 13.964844 22.617188 14.035156 22.515625 14.109375 C 22.414062 14.191406 22.308594 14.273438 22.199219 14.359375 C 21.980469 14.535156 21.746094 14.71875 21.519531 14.90625 C 21.070312 15.300781 20.617188 15.6875 20.304688 16.003906 C 20.144531 16.160156 20.011719 16.289062 19.917969 16.378906 C 19.824219 16.46875 19.769531 16.523438 19.769531 16.523438 C 19.769531 16.523438 19.566406 16.738281 19.257812 17.058594 C 18.9375 17.375 18.5625 17.835938 18.167969 18.28125 C 17.800781 18.75 17.417969 19.207031 17.167969 19.578125 C 16.910156 19.941406 16.734375 20.183594 16.734375 20.183594 L 16.136719 21.085938 C 14.890625 23.027344 13.890625 25.144531 13.238281 27.375 C 12.558594 29.597656 12.246094 31.929688 12.222656 34.261719 L 12.222656 34.296875 C 12.246094 36.628906 12.558594 38.960938 13.238281 41.183594 C 13.890625 43.414062 14.890625 45.53125 16.136719 47.472656 L 16.734375 48.375 C 16.734375 48.375 16.910156 48.617188 17.167969 48.980469 C 17.417969 49.351562 17.800781 49.808594 18.167969 50.277344 C 18.5625 50.722656 18.9375 51.183594 19.257812 51.5 C 19.566406 51.820312 19.769531 52.035156 19.769531 52.035156 C 19.769531 52.035156 19.824219 52.089844 19.917969 52.179688 C 20.011719 52.269531 20.144531 52.398438 20.304688 52.554688 C 20.617188 52.871094 21.070312 53.257812 21.519531 53.652344 C 21.746094 53.839844 21.980469 54.023438 22.199219 54.199219 C 22.308594 54.285156 22.414062 54.367188 22.515625 54.449219 C 22.617188 54.523438 22.714844 54.59375 22.804688 54.660156 C 23.167969 54.921875 23.410156 55.09375 23.410156 55.09375 C 23.410156 55.09375 23.460938 55.136719 23.546875 55.191406 C 23.632812 55.25 23.742188 55.324219 23.855469 55.398438 C 24.078125 55.550781 24.304688 55.699219 24.304688 55.699219 C 24.363281 55.738281 24.425781 55.78125 24.492188 55.828125 C 24.558594 55.867188 24.628906 55.910156 24.703125 55.953125 C 24.851562 56.042969 25.007812 56.136719 25.175781 56.238281 C 25.507812 56.445312 25.898438 56.644531 26.324219 56.871094 C 26.429688 56.925781 26.539062 56.984375 26.648438 57.039062 C 26.761719 57.09375 26.878906 57.148438 26.996094 57.203125 C 27.234375 57.3125 27.476562 57.421875 27.730469 57.539062 C 28.246094 57.742188 28.785156 57.984375 29.371094 58.175781 C 31.691406 59.019531 34.589844 59.539062 37.496094 59.550781 C 40.398438 59.539062 43.296875 59.019531 45.617188 58.175781 C 46.203125 57.984375 46.746094 57.742188 47.261719 57.539062 C 47.511719 57.421875 47.757812 57.3125 47.992188 57.203125 C 48.109375 57.144531 48.226562 57.09375 48.339844 57.039062 C 48.453125 56.984375 48.558594 56.925781 48.664062 56.871094 C 49.089844 56.644531 49.480469 56.445312 49.8125 56.238281 C 49.980469 56.136719 50.140625 56.042969 50.285156 55.953125 C 50.359375 55.910156 50.429688 55.867188 50.496094 55.828125 C 50.5625 55.78125 50.625 55.738281 50.683594 55.699219 C 50.683594 55.699219 50.910156 55.550781 51.132812 55.398438 C 51.246094 55.324219 51.359375 55.25 51.441406 55.191406 C 51.527344 55.136719 51.582031 55.09375 51.582031 55.09375 C 51.582031 55.09375 51.820312 54.921875 52.183594 54.660156 C 52.273438 54.59375 52.371094 54.523438 52.476562 54.449219 C 52.574219 54.367188 52.679688 54.285156 52.789062 54.199219 C 53.007812 54.023438 53.242188 53.839844 53.472656 53.652344 C 53.917969 53.257812 54.371094 52.871094 54.683594 52.554688 C 54.84375 52.398438 54.980469 52.269531 55.074219 52.179688 C 55.167969 52.089844 55.21875 52.035156 55.21875 52.035156 C 55.21875 52.035156 55.425781 51.820312 55.734375 51.5 C 56.050781 51.183594 56.429688 50.722656 56.824219 50.277344 C 57.1875 49.808594 57.570312 49.351562 57.820312 48.980469 C 58.082031 48.617188 58.253906 48.375 58.253906 48.375 L 58.851562 47.472656 C 60.101562 45.53125 61.101562 43.414062 61.753906 41.183594 C 62.429688 38.960938 62.746094 36.628906 62.765625 34.296875 L 62.765625 34.261719 " fill-opacity="1" fill-rule="nonzero"/></g><g clip-path="url(#5ba4008b96)"><path fill="#38b6ff" d="M 37.28125 40.636719 C 37.34375 40.636719 37.402344 40.636719 37.460938 40.636719 L 37.460938 16.222656 L 42.816406 20.097656 L 42.816406 40.96875 C 42.875 40.976562 42.9375 40.984375 42.996094 40.992188 L 42.996094 20.007812 L 37.28125 15.875 L 31.570312 20.007812 L 31.570312 41.042969 C 33.390625 40.785156 35.304688 40.644531 37.28125 40.636719 Z M 37.28125 40.636719 " fill-opacity="1" fill-rule="nonzero"/></g><path fill="#38b6ff" d="M 30.585938 25.171875 L 24.871094 29.304688 L 24.871094 42.652344 C 26.605469 42.035156 28.527344 41.539062 30.585938 41.195312 Z M 30.585938 25.171875 " fill-opacity="1" fill-rule="nonzero"/><path fill="#38b6ff" d="M 23.890625 32.445312 L 20.253906 35.074219 L 20.253906 44.875 C 21.316406 44.1875 22.539062 43.566406 23.890625 43.023438 Z M 23.890625 32.445312 " fill-opacity="1" fill-rule="nonzero"/><path fill="#38b6ff" d="M 44.152344 25.523438 L 49.507812 29.394531 L 49.507812 42.457031 C 49.566406 42.476562 49.625 42.496094 49.6875 42.515625 L 49.6875 29.304688 L 43.972656 25.171875 L 43.972656 41.132812 C 44.03125 41.140625 44.089844 41.152344 44.152344 41.160156 Z M 44.152344 25.523438 " fill-opacity="1" fill-rule="nonzero"/><path fill="#38b6ff" d="M 50.847656 32.796875 L 54.125 35.167969 L 54.125 44.523438 C 54.183594 44.558594 54.246094 44.59375 54.304688 44.628906 L 54.304688 35.074219 L 50.667969 32.445312 L 50.667969 42.871094 C 50.730469 42.894531 50.789062 42.917969 50.847656 42.941406 Z M 50.847656 32.796875 " fill-opacity="1" fill-rule="nonzero"/><g clip-path="url(#3b999065f3)"><path fill="#38b6ff" d="M 49.6875 44.8125 C 49.625 44.789062 49.566406 44.769531 49.507812 44.75 C 47.863281 44.203125 46.066406 43.765625 44.152344 43.457031 C 44.09375 43.449219 44.03125 43.4375 43.972656 43.429688 C 43.652344 43.378906 43.324219 43.332031 42.996094 43.289062 C 42.9375 43.28125 42.878906 43.273438 42.816406 43.265625 C 41.113281 43.050781 39.332031 42.933594 37.496094 42.933594 C 37.484375 42.933594 37.472656 42.933594 37.460938 42.933594 C 37.402344 42.933594 37.34375 42.9375 37.28125 42.9375 C 35.304688 42.945312 33.390625 43.089844 31.570312 43.347656 C 31.238281 43.394531 30.910156 43.445312 30.585938 43.496094 C 28.527344 43.84375 26.605469 44.339844 24.871094 44.960938 C 22.53125 45.796875 20.527344 46.863281 18.996094 48.09375 C 24.238281 46.246094 30.613281 45.164062 37.496094 45.164062 C 44.375 45.164062 50.753906 46.246094 55.992188 48.09375 C 54.367188 46.789062 52.214844 45.671875 49.6875 44.8125 Z M 49.6875 44.8125 " fill-opacity="1" fill-rule="nonzero"/></g></svg>